<svg width="748" height="130" viewBox="0 0 748 130" fill="none" xmlns="http://www.w3.org/2000/svg">
<g clip-path="url(#clip0_3_61)">
<rect width="748" height="130" fill="white" style="fill:white;fill:white;fill-opacity:1;"/>
<path d="M57.69 73.889C57.69 71.901 57.3823 70.481 56.767 69.629C56.1517 68.7297 55.2997 68.1617 54.211 67.925C53.1697 67.6883 52.01 67.5937 50.732 67.641L48.886 67.712V79.356C48.886 80.634 48.8623 81.841 48.815 82.977C48.7677 84.113 48.6967 84.9887 48.602 85.604H58.116C59.536 85.604 60.9087 85.2963 62.234 84.681C63.5593 84.0183 64.648 82.9533 65.5 81.486C66.352 79.9713 66.778 77.936 66.778 75.38H71.393L71.038 91H33.55V86.314C34.6387 86.2667 35.538 86.1247 36.248 85.888C37.0053 85.6513 37.5733 85.107 37.952 84.255C38.378 83.403 38.591 82.0303 38.591 80.137V52.944C38.591 51.666 38.6147 50.4353 38.662 49.252C38.7567 48.0687 38.8277 47.1693 38.875 46.554C38.1177 46.6013 37.171 46.6487 36.035 46.696C34.899 46.696 34.0707 46.7197 33.55 46.767V41.3H69.05L69.476 55.074H64.79C64.79 52.4707 64.3403 50.5063 63.441 49.181C62.5417 47.8557 61.4293 46.98 60.104 46.554C58.7787 46.0807 57.477 45.8677 56.199 45.915L53.643 45.986C52.649 45.986 51.797 46.128 51.087 46.412C50.377 46.6487 49.8327 47.2167 49.454 48.116C49.0753 48.968 48.886 50.317 48.886 52.163V62.813H57.193L56.909 56.636H62.376V73.889H57.69ZM89.3826 91.213L78.1646 66.576C77.644 65.3927 77.2653 64.4933 77.0286 63.878C76.8393 63.2627 76.6973 62.742 76.6026 62.316C76.5553 61.8427 76.4606 61.322 76.3186 60.754L73.6916 60.896V55.5H90.3056V60.044C89.3116 60.0913 88.649 60.3753 88.3176 60.896C87.9863 61.4167 87.868 62.103 87.9626 62.955C88.0573 63.7597 88.2703 64.6353 88.6016 65.582L92.2936 74.67C92.6723 75.5693 93.051 76.4923 93.4296 77.439C93.8083 78.3857 94.187 79.3323 94.5656 80.279H94.6366C95.0153 79.285 95.3703 78.291 95.7016 77.297C96.0803 76.303 96.4353 75.309 96.7666 74.315L99.8196 65.653C100.246 64.4697 100.624 63.523 100.956 62.813C101.334 62.103 101.737 61.3693 102.163 60.612L97.7606 60.896V55.5H111.251V60.044C110.162 60.2333 109.192 60.8487 108.34 61.89C107.488 62.884 106.754 64.02 106.139 65.298C105.523 66.5287 105.026 67.6173 104.648 68.564L95.5596 91.213H89.3826ZM130.376 92.136C126.92 92.136 123.867 91.3787 121.217 89.864C118.566 88.302 116.507 86.1247 115.04 83.332C113.572 80.492 112.839 77.155 112.839 73.321C112.839 70.0077 113.572 66.9073 115.04 64.02C116.507 61.1327 118.566 58.8133 121.217 57.062C123.915 55.2633 127.039 54.364 130.589 54.364C132.577 54.364 134.517 54.648 136.411 55.216C138.304 55.7367 140.008 56.6597 141.523 57.985C143.085 59.3103 144.315 61.109 145.215 63.381C146.161 65.653 146.611 68.493 146.564 71.901L123.276 72.327C123.276 74.883 123.583 77.1787 124.199 79.214C124.861 81.2493 125.926 82.8587 127.394 84.042C128.861 85.2253 130.825 85.817 133.287 85.817C134.233 85.817 135.298 85.6513 136.482 85.32C137.712 84.9887 138.943 84.4443 140.174 83.687C141.452 82.8823 142.635 81.8173 143.724 80.492L146.919 83.474C145.215 85.888 143.392 87.734 141.452 89.012C139.511 90.2427 137.57 91.071 135.63 91.497C133.736 91.923 131.985 92.136 130.376 92.136ZM123.702 67.357H136.766C136.718 65.369 136.434 63.807 135.914 62.671C135.44 61.4877 134.778 60.6357 133.926 60.115C133.074 59.5943 132.08 59.334 130.944 59.334C128.861 59.334 127.228 60.0913 126.045 61.606C124.861 63.0733 124.08 64.9903 123.702 67.357ZM151.753 86.385C153.078 86.385 154.025 86.1247 154.593 85.604C155.161 85.0833 155.516 84.3497 155.658 83.403C155.847 82.409 155.942 81.2967 155.942 80.066V68.138C155.942 67.286 155.965 66.3393 156.013 65.298C156.06 64.2093 156.131 63.1443 156.226 62.103C155.468 62.1503 154.569 62.1977 153.528 62.245C152.534 62.245 151.776 62.2687 151.256 62.316V56.92H154.096C155.942 56.92 157.622 56.6833 159.137 56.21C160.699 55.7367 161.716 55.2633 162.19 54.79H165.669C165.763 55.2633 165.834 56.1627 165.882 57.488C165.929 58.766 165.953 59.902 165.953 60.896C167.231 59.334 168.438 58.0797 169.574 57.133C170.71 56.1863 171.822 55.5 172.911 55.074C174.047 54.6007 175.183 54.364 176.319 54.364C177.975 54.364 179.419 54.8373 180.65 55.784C181.88 56.6833 182.496 58.1743 182.496 60.257C182.496 60.967 182.33 61.7243 181.999 62.529C181.667 63.2863 181.147 63.9253 180.437 64.446C179.727 64.9667 178.756 65.227 177.526 65.227C176.579 65.227 175.609 64.943 174.615 64.375C173.621 63.807 173.053 62.7183 172.911 61.109C171.964 61.109 171.017 61.5113 170.071 62.316C169.124 63.0733 168.272 63.9963 167.515 65.085C166.805 66.1263 166.308 67.0967 166.024 67.996V79.569C166.024 80.2317 166 81.1783 165.953 82.409C165.905 83.5923 165.834 84.7283 165.74 85.817C166.497 85.7223 167.325 85.675 168.225 85.675C169.171 85.6277 169.881 85.604 170.355 85.604V91H151.753V86.385ZM194.364 110.241C192.566 110.241 191.027 109.697 189.749 108.608C188.519 107.567 187.903 106.17 187.903 104.419C187.903 103.141 188.306 102.005 189.11 101.011C189.962 100.064 191.051 99.5673 192.376 99.52C193.418 99.4727 194.293 99.804 195.003 100.514C195.761 101.271 196.139 102.289 196.139 103.567C196.139 103.709 196.139 103.851 196.139 103.993C196.139 104.135 196.116 104.301 196.068 104.49C196.163 104.49 196.281 104.466 196.423 104.419C196.849 104.277 197.299 103.875 197.772 103.212C198.293 102.597 198.79 101.768 199.263 100.727C199.784 99.6383 200.281 98.4077 200.754 97.035C201.275 95.7097 201.725 94.3133 202.103 92.846L190.885 70.339C189.56 67.6883 188.684 65.7003 188.258 64.375C187.88 63.0023 187.619 61.7953 187.477 60.754L184.211 60.896V55.5H201.89V60.044C200.139 60.2333 199.169 60.896 198.979 62.032C198.837 63.168 199.05 64.3513 199.618 65.582L206.576 81.486C207.05 80.2553 207.665 78.362 208.422 75.806C209.18 73.2027 210.079 70.3863 211.12 67.357C211.31 66.7417 211.546 66.0317 211.83 65.227C212.162 64.375 212.517 63.5467 212.895 62.742C213.274 61.89 213.676 61.2037 214.102 60.683L210.055 60.896V55.5H222.693V60.044C221.226 60.3753 219.995 61.2747 219.001 62.742C218.055 64.2093 217.203 66.008 216.445 68.138L207.57 93.485C206.245 97.319 204.991 100.467 203.807 102.928C202.624 105.437 201.299 107.283 199.831 108.466C198.364 109.649 196.542 110.241 194.364 110.241ZM238.952 92.136C236.112 92.136 233.603 91.4023 231.426 89.935C229.296 88.4677 227.616 86.385 226.385 83.687C225.202 80.989 224.61 77.8177 224.61 74.173C224.61 70.339 225.344 66.931 226.811 63.949C228.278 60.967 230.337 58.624 232.988 56.92C235.639 55.216 238.715 54.364 242.218 54.364C243.496 54.364 244.632 54.506 245.626 54.79C246.667 55.0267 247.638 55.3107 248.537 55.642V50.956C248.537 50.2933 248.561 49.3467 248.608 48.116C248.655 46.8853 248.726 45.7493 248.821 44.708C248.064 44.7553 247.164 44.8027 246.123 44.85C245.082 44.8973 244.301 44.921 243.78 44.921V39.525C246.005 39.525 247.851 39.4067 249.318 39.17C250.833 38.9333 252.016 38.6493 252.868 38.318C253.767 37.9867 254.383 37.679 254.714 37.395H258.548V79.569C258.548 80.2317 258.524 81.1783 258.477 82.409C258.43 83.5923 258.359 84.7283 258.264 85.817C259.069 85.7223 259.921 85.675 260.82 85.675C261.719 85.6277 262.406 85.604 262.879 85.604V91H249.389C249.342 90.4793 249.271 89.935 249.176 89.367C249.129 88.799 249.058 88.2547 248.963 87.734C247.401 89.3433 245.792 90.4793 244.135 91.142C242.478 91.8047 240.751 92.136 238.952 92.136ZM242.644 85.675C243.875 85.675 245.011 85.3673 246.052 84.752C247.093 84.0893 247.922 83.261 248.537 82.267C248.537 81.557 248.537 80.847 248.537 80.137C248.537 79.427 248.537 78.717 248.537 78.007V60.967C248.064 60.5883 247.354 60.2807 246.407 60.044C245.46 59.76 244.49 59.618 243.496 59.618C241.319 59.6653 239.615 60.3517 238.384 61.677C237.153 63.0023 236.278 64.6827 235.757 66.718C235.284 68.7533 235.047 70.8833 235.047 73.108C235.047 75.096 235.284 77.0603 235.757 79.001C236.278 80.9417 237.082 82.551 238.171 83.829C239.307 85.0597 240.798 85.675 242.644 85.675ZM287.282 91C287.187 90.3373 287.116 89.793 287.069 89.367C287.069 88.8937 287.045 88.3493 286.998 87.734C285.388 89.3433 283.684 90.4793 281.886 91.142C280.087 91.8047 278.265 92.136 276.419 92.136C273.389 92.136 271.023 91.2367 269.319 89.438C267.615 87.6393 266.763 85.391 266.763 82.693C266.763 80.421 267.331 78.4803 268.467 76.871C269.65 75.2617 271.188 73.96 273.082 72.966C275.022 71.9247 277.152 71.1437 279.472 70.623C281.838 70.055 284.205 69.7237 286.572 69.629V65.937C286.572 64.7063 286.406 63.594 286.075 62.6C285.791 61.606 285.27 60.825 284.513 60.257C283.803 59.689 282.785 59.4287 281.46 59.476C280.56 59.5233 279.685 59.7127 278.833 60.044C277.981 60.3753 277.247 60.8487 276.632 61.464C277.01 61.89 277.247 62.3633 277.342 62.884C277.436 63.3573 277.484 63.7833 277.484 64.162C277.484 65.1087 277.105 66.1027 276.348 67.144C275.59 68.138 274.383 68.6113 272.727 68.564C271.307 68.5167 270.218 68.0197 269.461 67.073C268.703 66.1263 268.325 65.014 268.325 63.736C268.325 61.8427 268.987 60.2097 270.313 58.837C271.685 57.417 273.508 56.3283 275.78 55.571C278.052 54.7663 280.56 54.364 283.306 54.364C287.471 54.364 290.69 55.4527 292.962 57.63C295.281 59.76 296.441 63.1917 296.441 67.925C296.441 69.5343 296.441 70.907 296.441 72.043C296.441 73.179 296.417 74.315 296.37 75.451C296.37 76.587 296.37 77.9597 296.37 79.569C296.37 80.2317 296.346 81.1783 296.299 82.409C296.251 83.5923 296.18 84.7283 296.086 85.817C296.89 85.7223 297.742 85.675 298.642 85.675C299.541 85.6277 300.227 85.604 300.701 85.604V91H287.282ZM286.501 74.67C285.175 74.812 283.921 75.0487 282.738 75.38C281.554 75.7113 280.513 76.161 279.614 76.729C278.762 77.297 278.075 77.9833 277.555 78.788C277.081 79.5927 276.845 80.492 276.845 81.486C276.892 82.8113 277.318 83.758 278.123 84.326C278.927 84.894 279.85 85.178 280.892 85.178C281.98 85.178 282.998 84.9413 283.945 84.468C284.891 83.9947 285.743 83.3793 286.501 82.622C286.501 82.1487 286.501 81.699 286.501 81.273C286.501 80.7997 286.501 80.3263 286.501 79.853C286.501 79.001 286.501 78.149 286.501 77.297C286.501 76.3977 286.501 75.522 286.501 74.67ZM311.473 110.241C309.674 110.241 308.136 109.697 306.858 108.608C305.627 107.567 305.012 106.17 305.012 104.419C305.012 103.141 305.414 102.005 306.219 101.011C307.071 100.064 308.16 99.5673 309.485 99.52C310.526 99.4727 311.402 99.804 312.112 100.514C312.869 101.271 313.248 102.289 313.248 103.567C313.248 103.709 313.248 103.851 313.248 103.993C313.248 104.135 313.224 104.301 313.177 104.49C313.272 104.49 313.39 104.466 313.532 104.419C313.958 104.277 314.408 103.875 314.881 103.212C315.402 102.597 315.899 101.768 316.372 100.727C316.893 99.6383 317.39 98.4077 317.863 97.035C318.384 95.7097 318.833 94.3133 319.212 92.846L307.994 70.339C306.669 67.6883 305.793 65.7003 305.367 64.375C304.988 63.0023 304.728 61.7953 304.586 60.754L301.32 60.896V55.5H318.999V60.044C317.248 60.2333 316.277 60.896 316.088 62.032C315.946 63.168 316.159 64.3513 316.727 65.582L323.685 81.486C324.158 80.2553 324.774 78.362 325.531 75.806C326.288 73.2027 327.188 70.3863 328.229 67.357C328.418 66.7417 328.655 66.0317 328.939 65.227C329.27 64.375 329.625 63.5467 330.004 62.742C330.383 61.89 330.785 61.2037 331.211 60.683L327.164 60.896V55.5H339.802V60.044C338.335 60.3753 337.104 61.2747 336.11 62.742C335.163 64.2093 334.311 66.008 333.554 68.138L324.679 93.485C323.354 97.319 322.099 100.467 320.916 102.928C319.733 105.437 318.407 107.283 316.94 108.466C315.473 109.649 313.65 110.241 311.473 110.241ZM398.979 57.346C398.979 54.79 398.624 52.6837 397.914 51.027C397.204 49.323 396.186 48.0687 394.861 47.264C393.583 46.412 392.044 46.0097 390.246 46.057H386.838V79.356C386.838 80.634 386.814 81.8647 386.767 83.048C386.719 84.2313 386.648 85.1307 386.554 85.746C387.358 85.6513 388.376 85.604 389.607 85.604C390.885 85.5567 391.76 85.533 392.234 85.533V91H371.502V86.314C372.59 86.2667 373.49 86.1247 374.2 85.888C374.957 85.6513 375.525 85.107 375.904 84.255C376.33 83.403 376.543 82.0303 376.543 80.137V46.128H373.277C370.579 46.1753 368.449 47.0983 366.887 48.897C365.325 50.6957 364.544 53.512 364.544 57.346H359.858L360.213 41.3H403.239L403.665 57.346H398.979ZM428.968 86.385C430.294 86.385 431.24 86.1247 431.808 85.604C432.424 85.0833 432.802 84.3497 432.944 83.403C433.134 82.409 433.228 81.2967 433.228 80.066L433.157 69.984C433.157 66.9073 432.684 64.6353 431.737 63.168C430.838 61.6533 429.394 60.896 427.406 60.896C426.223 60.896 425.04 61.1563 423.856 61.677C422.72 62.1977 421.75 62.813 420.945 63.523V79.569C420.945 80.2317 420.922 81.1783 420.874 82.409C420.827 83.5923 420.756 84.7283 420.661 85.817C421.466 85.7223 422.318 85.675 423.217 85.675C424.117 85.6277 424.803 85.604 425.276 85.604V91H406.674V86.385C408 86.385 408.946 86.1247 409.514 85.604C410.13 85.0833 410.508 84.3497 410.65 83.403C410.792 82.409 410.863 81.2967 410.863 80.066V50.885C410.863 50.033 410.887 49.0627 410.934 47.974C410.982 46.838 411.053 45.7493 411.147 44.708C410.39 44.7553 409.491 44.8027 408.449 44.85C407.455 44.85 406.698 44.8737 406.177 44.921V39.525C408.402 39.525 410.248 39.4067 411.715 39.17C413.23 38.9333 414.413 38.6493 415.265 38.318C416.165 37.9867 416.78 37.679 417.111 37.395H420.945V58.34C421.892 57.5827 422.981 56.92 424.211 56.352C425.442 55.7367 426.696 55.2633 427.974 54.932C429.252 54.5533 430.365 54.364 431.311 54.364C435.666 54.364 438.743 55.6183 440.541 58.127C442.34 60.5883 443.263 64.5643 443.31 70.055V79.569C443.31 80.2317 443.287 81.1783 443.239 82.409C443.192 83.5923 443.121 84.7283 443.026 85.817C443.784 85.7223 444.612 85.675 445.511 85.675C446.411 85.6277 447.121 85.604 447.641 85.604V91H428.968V86.385ZM451.908 86.385C453.233 86.385 454.18 86.1247 454.748 85.604C455.316 85.0833 455.671 84.3497 455.813 83.403C456.002 82.409 456.097 81.2967 456.097 80.066V68.28C456.097 67.428 456.121 66.4577 456.168 65.369C456.215 64.233 456.286 63.1443 456.381 62.103C455.624 62.1503 454.724 62.1977 453.683 62.245C452.689 62.245 451.932 62.2687 451.411 62.316V56.92C453.588 56.92 455.434 56.8017 456.949 56.565C458.464 56.3283 459.647 56.0443 460.499 55.713C461.398 55.3817 462.014 55.074 462.345 54.79H466.179V79.569C466.179 80.2317 466.155 81.1783 466.108 82.409C466.061 83.5923 465.99 84.7283 465.895 85.817C466.652 85.7223 467.481 85.675 468.38 85.675C469.327 85.6277 470.037 85.604 470.51 85.604V91H451.908V86.385ZM460.783 49.181C459.174 49.181 457.848 48.613 456.807 47.477C455.766 46.341 455.245 44.9683 455.245 43.359C455.245 41.7497 455.789 40.377 456.878 39.241C457.967 38.105 459.245 37.537 460.712 37.537C462.227 37.537 463.481 38.105 464.475 39.241C465.516 40.377 466.037 41.7497 466.037 43.359C466.037 44.9683 465.564 46.341 464.617 47.477C463.67 48.613 462.392 49.181 460.783 49.181ZM475.136 91V86.385C476.461 86.385 477.408 86.1247 477.976 85.604C478.544 85.0833 478.899 84.3497 479.041 83.403C479.23 82.409 479.325 81.2967 479.325 80.066V68.138C479.325 67.286 479.348 66.3393 479.396 65.298C479.443 64.2093 479.514 63.1443 479.609 62.103C478.851 62.1503 477.952 62.1977 476.911 62.245C475.917 62.245 475.159 62.2687 474.639 62.316V56.92C476.816 56.92 478.662 56.8017 480.177 56.565C481.691 56.3283 482.875 56.0443 483.727 55.713C484.626 55.3817 485.241 55.074 485.573 54.79H489.052C489.146 55.4053 489.194 55.855 489.194 56.139C489.194 56.423 489.194 56.707 489.194 56.991C489.241 57.2277 489.336 57.6773 489.478 58.34C490.424 57.5827 491.513 56.92 492.744 56.352C493.974 55.7367 495.205 55.2633 496.436 54.932C497.666 54.5533 498.755 54.364 499.702 54.364C504.056 54.364 507.133 55.6183 508.932 58.127C510.778 60.5883 511.701 64.5643 511.701 70.055V79.569C511.701 80.2317 511.677 81.1783 511.63 82.409C511.582 83.5923 511.511 84.7283 511.417 85.817C512.221 85.7223 513.073 85.675 513.973 85.675C514.872 85.6277 515.558 85.604 516.032 85.604V91H497.43V86.385C498.755 86.385 499.702 86.1247 500.27 85.604C500.885 85.0833 501.264 84.3497 501.406 83.403C501.595 82.409 501.69 81.2967 501.69 80.066L501.619 69.984C501.619 66.9073 501.169 64.6353 500.27 63.168C499.418 61.6533 497.95 60.896 495.868 60.896C494.684 60.896 493.501 61.1563 492.318 61.677C491.182 62.1977 490.211 62.813 489.407 63.523C489.407 64.1857 489.407 64.872 489.407 65.582C489.407 66.2447 489.407 66.9073 489.407 67.57V79.569C489.407 80.2317 489.383 81.1783 489.336 82.409C489.288 83.5923 489.217 84.7283 489.123 85.817C489.88 85.7223 490.708 85.675 491.608 85.675C492.554 85.6277 493.264 85.604 493.738 85.604V91H475.136ZM535.538 110.241C531.468 110.241 528.249 109.791 525.882 108.892C523.516 108.04 521.835 106.904 520.841 105.484C519.847 104.064 519.35 102.549 519.35 100.94C519.35 99.946 519.563 98.952 519.989 97.958C520.415 96.964 521.102 95.9937 522.048 95.047C523.042 94.1477 524.391 93.3903 526.095 92.775C524.155 92.2543 522.782 91.426 521.977 90.29C521.22 89.1067 520.841 87.8523 520.841 86.527C520.841 85.2963 521.338 83.9237 522.332 82.409C523.326 80.847 525.125 79.6637 527.728 78.859C525.74 78.0543 524.107 76.8 522.829 75.096C521.551 73.392 520.865 71.333 520.77 68.919C520.676 66.079 521.386 63.5703 522.9 61.393C524.415 59.1683 526.403 57.4407 528.864 56.21C531.326 54.9793 533.905 54.364 536.603 54.364C537.834 54.364 539.254 54.5297 540.863 54.861C542.473 55.1923 543.869 55.7603 545.052 56.565C545.573 55.0977 546.236 53.725 547.04 52.447C547.892 51.1217 548.91 50.0567 550.093 49.252C551.277 48.4 552.602 47.974 554.069 47.974C555.679 47.974 556.886 48.4 557.69 49.252C558.542 50.0567 558.968 51.1453 558.968 52.518C558.968 53.086 558.826 53.725 558.542 54.435C558.306 55.0977 557.856 55.6657 557.193 56.139C556.578 56.6123 555.702 56.849 554.566 56.849C553.856 56.849 553.146 56.5887 552.436 56.068C551.726 55.5 551.3 54.8373 551.158 54.08C550.543 54.2693 549.928 54.8847 549.312 55.926C548.697 56.9673 548.342 57.8903 548.247 58.695C549.62 59.8783 550.661 61.251 551.371 62.813C552.081 64.375 552.436 66.0553 552.436 67.854C552.436 70.5993 551.655 73.037 550.093 75.167C548.579 77.2497 546.591 78.9063 544.129 80.137C541.715 81.3203 539.112 81.912 536.319 81.912C535.704 81.912 535.018 81.8883 534.26 81.841C533.503 81.7463 532.769 81.699 532.059 81.699C531.018 81.699 530.142 81.8883 529.432 82.267C528.722 82.6457 528.367 83.1663 528.367 83.829C528.367 84.7283 529.054 85.3437 530.426 85.675C531.799 86.0063 534.142 86.2667 537.455 86.456C541.1 86.6453 544.271 87.1187 546.969 87.876C549.715 88.586 551.845 89.722 553.359 91.284C554.874 92.846 555.631 94.9997 555.631 97.745C555.631 99.7803 555.04 101.555 553.856 103.07C552.673 104.632 551.087 105.934 549.099 106.975C547.159 108.064 545.005 108.868 542.638 109.389C540.272 109.957 537.905 110.241 535.538 110.241ZM537.597 105.342C540.958 105.342 543.49 104.727 545.194 103.496C546.946 102.265 547.821 100.987 547.821 99.662C547.821 98.668 547.443 97.8397 546.685 97.177C545.928 96.5617 544.792 96.0647 543.277 95.686C541.81 95.3073 539.917 95.0707 537.597 94.976C536.556 94.8813 535.349 94.8103 533.976 94.763C532.604 94.7157 531.397 94.5973 530.355 94.408C529.645 94.976 529.101 95.686 528.722 96.538C528.344 97.39 528.131 98.2183 528.083 99.023C527.989 100.916 528.793 102.431 530.497 103.567C532.249 104.75 534.615 105.342 537.597 105.342ZM536.603 77.155C537.881 77.155 538.946 76.7527 539.798 75.948C540.698 75.1433 541.36 74.1257 541.786 72.895C542.26 71.6643 542.496 70.41 542.496 69.132C542.496 67.4753 542.283 65.8897 541.857 64.375C541.431 62.813 540.769 61.5587 539.869 60.612C539.017 59.618 537.905 59.121 536.532 59.121C534.639 59.121 533.172 59.973 532.13 61.677C531.089 63.381 530.568 65.3217 530.568 67.499C530.568 69.1557 530.805 70.7413 531.278 72.256C531.752 73.7233 532.438 74.9067 533.337 75.806C534.237 76.7053 535.325 77.155 536.603 77.155ZM575.709 92.136C573.673 92.136 571.685 91.8757 569.745 91.355C567.804 90.8343 566.289 90.1717 565.201 89.367L565.343 91.497H559.947L559.663 79.285H564.278C564.42 80.705 564.988 82.0067 565.982 83.19C566.976 84.3733 568.277 85.32 569.887 86.03C571.496 86.6927 573.295 87.024 575.283 87.024C576.087 87.024 576.845 86.9057 577.555 86.669C578.312 86.4323 578.927 86.0537 579.401 85.533C579.921 84.965 580.182 84.2787 580.182 83.474C580.182 82.5747 579.85 81.841 579.188 81.273C578.572 80.705 577.649 80.1607 576.419 79.64C575.235 79.1193 573.744 78.5277 571.946 77.865C570.478 77.297 568.987 76.7053 567.473 76.09C566.005 75.4747 564.633 74.741 563.355 73.889C562.124 72.9897 561.13 71.901 560.373 70.623C559.615 69.2977 559.237 67.6883 559.237 65.795C559.237 64.4223 559.497 63.0733 560.018 61.748C560.538 60.3753 561.343 59.1447 562.432 58.056C563.52 56.92 564.893 56.0207 566.55 55.358C568.254 54.6953 570.265 54.364 572.585 54.364C573.863 54.364 575.306 54.577 576.916 55.003C578.572 55.3817 579.969 55.9733 581.105 56.778V54.719H586.501V67.286H581.886C581.602 65.6293 581.01 64.2093 580.111 63.026C579.259 61.8427 578.146 60.9433 576.774 60.328C575.401 59.6653 573.863 59.334 572.159 59.334C570.975 59.334 569.887 59.618 568.893 60.186C567.946 60.754 567.473 61.7243 567.473 63.097C567.473 64.1857 567.851 65.0613 568.609 65.724C569.366 66.3393 570.407 66.86 571.733 67.286C573.058 67.712 574.525 68.209 576.135 68.777C578.549 69.5817 580.679 70.5283 582.525 71.617C584.418 72.7057 585.909 74.031 586.998 75.593C588.086 77.1077 588.631 78.9773 588.631 81.202C588.631 83.6633 588.015 85.6987 586.785 87.308C585.554 88.9173 583.945 90.1243 581.957 90.929C580.016 91.7337 577.933 92.136 575.709 92.136Z" fill="black" style="fill:black;fill:black;fill-opacity:1;"/>
<path d="M676.5 33.9227L667 20L637.5 65.2486L654 89.6133L663 76.1879L655.5 65.2486L676.5 33.9227Z" fill="#66CCFF" style="fill:#66CCFF;fill:color(display-p3 0.4000 0.8000 1.0000);fill-opacity:1;"/>
<path d="M688 20L682 28.9503L694.25 47.0994L706.5 65.2486L682 101.05L688 110L718 65.2486L688 20Z" fill="#66CCFF" style="fill:#66CCFF;fill:color(display-p3 0.4000 0.8000 1.0000);fill-opacity:1;"/>
<path d="M652 28.9503L646 20L616 65.2486L646 110L652 101.05L628 65.2486L652 28.9503Z" fill="#003366" style="fill:#003366;fill:color(display-p3 0.0000 0.2000 0.4000);fill-opacity:1;"/>
<path d="M680.5 39.8895L671.5 53.8122L679.5 64.2541L658 96.0773L667 110L697 65.2486L680.5 39.8895Z" fill="#003366" style="fill:#003366;fill:color(display-p3 0.0000 0.2000 0.4000);fill-opacity:1;"/>
</g>
<defs>
<clipPath id="clip0_3_61">
<rect width="748" height="130" fill="white" style="fill:white;fill:white;fill-opacity:1;"/>
</clipPath>
</defs>
</svg>
