<svg width="748" height="130" viewBox="0 0 748 130" fill="none" xmlns="http://www.w3.org/2000/svg">
<g clip-path="url(#clip0_3_33)">
<rect width="748" height="130" fill="white" style="fill:white;fill:white;fill-opacity:1;"/>
<path d="M41.2 88C39.0067 88 37.3267 87.44 36.16 86.32C35.04 85.1533 34.48 83.4967 34.48 81.35V45.3C34.48 43.1533 35.04 41.52 36.16 40.4C37.3267 39.2333 39.0067 38.65 41.2 38.65H64.93C66.61 38.65 67.87 39.07 68.71 39.91C69.55 40.75 69.97 41.9633 69.97 43.55C69.97 45.1833 69.55 46.4433 68.71 47.33C67.87 48.17 66.61 48.59 64.93 48.59H46.8V57.97H63.39C65.0233 57.97 66.26 58.39 67.1 59.23C67.9867 60.07 68.43 61.3067 68.43 62.94C68.43 64.5733 67.9867 65.81 67.1 66.65C66.26 67.49 65.0233 67.91 63.39 67.91H46.8V78.06H64.93C66.61 78.06 67.87 78.5033 68.71 79.39C69.55 80.23 69.97 81.4433 69.97 83.03C69.97 84.6633 69.55 85.9 68.71 86.74C67.87 87.58 66.61 88 64.93 88H41.2ZM91.4879 88.63C89.8546 88.63 88.4546 88.2333 87.2879 87.44C86.1679 86.6 85.2346 85.3633 84.4879 83.73L74.4779 60.84C73.9179 59.44 73.7312 58.1333 73.9179 56.92C74.1046 55.7067 74.6879 54.75 75.6679 54.05C76.6946 53.3033 78.0946 52.93 79.8679 52.93C81.3612 52.93 82.5512 53.28 83.4379 53.98C84.3712 54.6333 85.2112 55.94 85.9579 57.9L93.0279 76.1H90.6479L98.0679 57.83C98.8146 55.9167 99.6546 54.6333 100.588 53.98C101.521 53.28 102.805 52.93 104.438 52.93C105.838 52.93 106.958 53.3033 107.798 54.05C108.685 54.75 109.221 55.7067 109.408 56.92C109.595 58.1333 109.361 59.44 108.708 60.84L98.4879 83.8C97.7879 85.4333 96.8546 86.6467 95.6879 87.44C94.5679 88.2333 93.1679 88.63 91.4879 88.63ZM132.039 88.77C127.839 88.77 124.199 88.0467 121.119 86.6C118.085 85.1067 115.752 83.0067 114.119 80.3C112.485 77.5933 111.669 74.3967 111.669 70.71C111.669 67.1633 112.439 64.06 113.979 61.4C115.565 58.6933 117.712 56.5933 120.419 55.1C123.172 53.56 126.299 52.79 129.799 52.79C132.365 52.79 134.699 53.21 136.799 54.05C138.899 54.8433 140.695 56.0333 142.189 57.62C143.682 59.16 144.802 61.0267 145.549 63.22C146.342 65.4133 146.739 67.8633 146.739 70.57C146.739 71.5033 146.482 72.2033 145.969 72.67C145.455 73.09 144.639 73.3 143.519 73.3H122.099V67.42H137.639L136.519 68.33C136.519 66.6033 136.285 65.2033 135.819 64.13C135.352 63.0567 134.652 62.24 133.719 61.68C132.832 61.12 131.712 60.84 130.359 60.84C128.912 60.84 127.652 61.19 126.579 61.89C125.552 62.5433 124.759 63.5233 124.199 64.83C123.639 66.1367 123.359 67.77 123.359 69.73V70.36C123.359 73.6733 124.082 76.0533 125.529 77.5C127.022 78.9 129.309 79.6 132.389 79.6C133.415 79.6 134.582 79.4833 135.889 79.25C137.242 78.97 138.525 78.5967 139.739 78.13C140.952 77.6633 142.002 77.5933 142.889 77.92C143.775 78.2 144.452 78.7133 144.919 79.46C145.432 80.16 145.712 80.9767 145.759 81.91C145.805 82.7967 145.595 83.6833 145.129 84.57C144.662 85.41 143.892 86.0633 142.819 86.53C141.185 87.2767 139.435 87.8367 137.569 88.21C135.749 88.5833 133.905 88.77 132.039 88.77ZM158.477 88.63C156.423 88.63 154.837 88.0933 153.717 87.02C152.643 85.9467 152.107 84.3833 152.107 82.33V59.16C152.107 57.1533 152.62 55.6133 153.647 54.54C154.72 53.4667 156.237 52.93 158.197 52.93C160.157 52.93 161.65 53.4667 162.677 54.54C163.703 55.6133 164.217 57.1533 164.217 59.16V62.03H163.517C163.983 59.23 165.173 57.0133 167.087 55.38C169.047 53.7467 171.473 52.8833 174.367 52.79C175.72 52.7433 176.723 53.0933 177.377 53.84C178.077 54.54 178.45 55.87 178.497 57.83C178.497 59.51 178.147 60.84 177.447 61.82C176.747 62.8 175.417 63.3833 173.457 63.57L171.847 63.71C169.373 63.9433 167.577 64.6433 166.457 65.81C165.337 66.93 164.777 68.61 164.777 70.85V82.33C164.777 84.3833 164.24 85.9467 163.167 87.02C162.093 88.0933 160.53 88.63 158.477 88.63ZM194.588 101.23C193.141 101.23 191.974 100.857 191.088 100.11C190.201 99.3633 189.641 98.3833 189.408 97.17C189.221 95.9567 189.431 94.6733 190.038 93.32L194.728 83.17V88.21L182.758 60.84C182.151 59.44 181.941 58.1333 182.128 56.92C182.361 55.7067 182.991 54.75 184.018 54.05C185.044 53.3033 186.444 52.93 188.218 52.93C189.711 52.93 190.901 53.28 191.788 53.98C192.721 54.6333 193.561 55.94 194.308 57.9L201.308 76.1H198.927L206.348 57.83C207.094 55.9167 207.934 54.6333 208.868 53.98C209.848 53.28 211.154 52.93 212.788 52.93C214.188 52.93 215.308 53.3033 216.148 54.05C216.988 54.75 217.501 55.7067 217.688 56.92C217.874 58.1333 217.664 59.44 217.058 60.84L201.168 96.54C200.328 98.4067 199.394 99.6433 198.368 100.25C197.388 100.903 196.128 101.23 194.588 101.23ZM235 88.77C232.06 88.77 229.447 88.0467 227.16 86.6C224.92 85.1533 223.147 83.0767 221.84 80.37C220.58 77.6633 219.95 74.4667 219.95 70.78C219.95 67 220.58 63.78 221.84 61.12C223.147 58.46 224.92 56.4067 227.16 54.96C229.447 53.5133 232.06 52.79 235 52.79C237.567 52.79 239.877 53.3967 241.93 54.61C243.983 55.8233 245.36 57.3867 246.06 59.3H245.29V44.32C245.29 42.2667 245.827 40.7033 246.9 39.63C247.973 38.5567 249.513 38.02 251.52 38.02C253.48 38.02 254.997 38.5567 256.07 39.63C257.19 40.7033 257.75 42.2667 257.75 44.32V82.33C257.75 84.3833 257.213 85.9467 256.14 87.02C255.113 88.0933 253.597 88.63 251.59 88.63C249.63 88.63 248.113 88.0933 247.04 87.02C245.967 85.9467 245.43 84.3833 245.43 82.33V78.34L246.2 81.77C245.547 83.87 244.17 85.5733 242.07 86.88C240.017 88.14 237.66 88.77 235 88.77ZM238.99 79.6C240.25 79.6 241.37 79.2967 242.35 78.69C243.33 78.0367 244.077 77.08 244.59 75.82C245.15 74.5133 245.43 72.8333 245.43 70.78C245.43 67.6533 244.823 65.4133 243.61 64.06C242.397 62.66 240.857 61.96 238.99 61.96C237.73 61.96 236.61 62.2633 235.63 62.87C234.65 63.4767 233.88 64.4333 233.32 65.74C232.76 67 232.48 68.68 232.48 70.78C232.48 73.86 233.087 76.1 234.3 77.5C235.513 78.9 237.077 79.6 238.99 79.6ZM276.938 88.77C274.278 88.77 271.921 88.28 269.868 87.3C267.861 86.32 266.275 84.99 265.108 83.31C263.988 81.5833 263.428 79.6233 263.428 77.43C263.428 74.91 264.081 72.9267 265.388 71.48C266.695 70.0333 268.795 69.0067 271.688 68.4C274.581 67.7467 278.431 67.42 283.238 67.42H287.088V73.3H283.238C281.418 73.3 279.901 73.44 278.688 73.72C277.521 73.9533 276.658 74.35 276.098 74.91C275.538 75.4233 275.258 76.1 275.258 76.94C275.258 78.0133 275.631 78.9 276.378 79.6C277.171 80.3 278.291 80.65 279.738 80.65C280.905 80.65 281.931 80.3933 282.818 79.88C283.751 79.3667 284.498 78.6667 285.058 77.78C285.618 76.8467 285.898 75.7733 285.898 74.56V66.44C285.898 64.76 285.455 63.57 284.568 62.87C283.728 62.17 282.258 61.82 280.158 61.82C279.038 61.82 277.778 61.96 276.378 62.24C274.978 62.4733 273.415 62.9167 271.688 63.57C270.428 64.0367 269.355 64.1067 268.468 63.78C267.581 63.4533 266.881 62.8933 266.368 62.1C265.901 61.3067 265.668 60.4433 265.668 59.51C265.715 58.5767 266.018 57.69 266.578 56.85C267.185 56.01 268.095 55.3567 269.308 54.89C271.548 54.05 273.601 53.49 275.468 53.21C277.381 52.93 279.131 52.79 280.718 52.79C284.545 52.79 287.695 53.35 290.168 54.47C292.688 55.5433 294.555 57.2233 295.768 59.51C297.028 61.75 297.658 64.6433 297.658 68.19V82.33C297.658 84.3833 297.168 85.9467 296.188 87.02C295.208 88.0933 293.785 88.63 291.918 88.63C290.005 88.63 288.535 88.0933 287.508 87.02C286.528 85.9467 286.038 84.3833 286.038 82.33V80.51L286.458 81.49C286.225 82.9833 285.688 84.2667 284.848 85.34C284.008 86.4133 282.911 87.2533 281.558 87.86C280.205 88.4667 278.665 88.77 276.938 88.77ZM314.421 101.23C312.975 101.23 311.808 100.857 310.921 100.11C310.035 99.3633 309.475 98.3833 309.241 97.17C309.055 95.9567 309.265 94.6733 309.871 93.32L314.561 83.17V88.21L302.591 60.84C301.985 59.44 301.775 58.1333 301.961 56.92C302.195 55.7067 302.825 54.75 303.851 54.05C304.878 53.3033 306.278 52.93 308.051 52.93C309.545 52.93 310.735 53.28 311.621 53.98C312.555 54.6333 313.395 55.94 314.141 57.9L321.141 76.1H318.761L326.181 57.83C326.928 55.9167 327.768 54.6333 328.701 53.98C329.681 53.28 330.988 52.93 332.621 52.93C334.021 52.93 335.141 53.3033 335.981 54.05C336.821 54.75 337.335 55.7067 337.521 56.92C337.708 58.1333 337.498 59.44 336.891 60.84L321.001 96.54C320.161 98.4067 319.228 99.6433 318.201 100.25C317.221 100.903 315.961 101.23 314.421 101.23ZM381.212 88.63C379.159 88.63 377.572 88.07 376.452 86.95C375.332 85.7833 374.772 84.1733 374.772 82.12V49.15H363.782C362.055 49.15 360.725 48.7067 359.792 47.82C358.905 46.8867 358.462 45.58 358.462 43.9C358.462 42.1733 358.905 40.8667 359.792 39.98C360.725 39.0933 362.055 38.65 363.782 38.65H398.642C400.369 38.65 401.675 39.0933 402.562 39.98C403.495 40.8667 403.962 42.1733 403.962 43.9C403.962 45.58 403.495 46.8867 402.562 47.82C401.675 48.7067 400.369 49.15 398.642 49.15H387.652V82.12C387.652 84.1733 387.115 85.7833 386.042 86.95C384.969 88.07 383.359 88.63 381.212 88.63ZM417.144 88.63C415.184 88.63 413.667 88.0933 412.594 87.02C411.52 85.9467 410.984 84.3833 410.984 82.33V44.32C410.984 42.2667 411.52 40.7033 412.594 39.63C413.667 38.5567 415.184 38.02 417.144 38.02C419.15 38.02 420.69 38.5567 421.764 39.63C422.884 40.7033 423.444 42.2667 423.444 44.32V59.58H422.324C423.444 57.3867 425.03 55.7067 427.084 54.54C429.184 53.3733 431.564 52.79 434.224 52.79C436.977 52.79 439.24 53.3267 441.014 54.4C442.787 55.4267 444.117 57.06 445.004 59.3C445.89 61.4933 446.334 64.27 446.334 67.63V82.33C446.334 84.3833 445.797 85.9467 444.724 87.02C443.65 88.0933 442.11 88.63 440.104 88.63C438.097 88.63 436.557 88.0933 435.484 87.02C434.41 85.9467 433.874 84.3833 433.874 82.33V68.12C433.874 66.02 433.5 64.5267 432.754 63.64C432.054 62.7533 431.004 62.31 429.604 62.31C427.737 62.31 426.244 62.9167 425.124 64.13C424.004 65.2967 423.444 66.8833 423.444 68.89V82.33C423.444 86.53 421.344 88.63 417.144 88.63ZM459.595 88.63C457.635 88.63 456.118 88.0467 455.045 86.88C453.972 85.7133 453.435 84.0333 453.435 81.84V59.72C453.435 57.5267 453.972 55.8467 455.045 54.68C456.118 53.5133 457.635 52.93 459.595 52.93C461.602 52.93 463.142 53.5133 464.215 54.68C465.335 55.8467 465.895 57.5267 465.895 59.72V81.84C465.895 84.0333 465.358 85.7133 464.285 86.88C463.212 88.0467 461.648 88.63 459.595 88.63ZM459.595 47.96C457.402 47.96 455.698 47.4467 454.485 46.42C453.318 45.3933 452.735 43.9 452.735 41.94C452.735 40.0267 453.318 38.5567 454.485 37.53C455.698 36.5033 457.402 35.99 459.595 35.99C461.882 35.99 463.608 36.5033 464.775 37.53C465.942 38.5567 466.525 40.0267 466.525 41.94C466.525 43.9 465.942 45.3933 464.775 46.42C463.608 47.4467 461.882 47.96 459.595 47.96ZM479.282 88.63C477.322 88.63 475.806 88.0933 474.732 87.02C473.659 85.9467 473.122 84.3833 473.122 82.33V59.16C473.122 57.1533 473.636 55.6133 474.662 54.54C475.736 53.4667 477.252 52.93 479.212 52.93C481.172 52.93 482.666 53.4667 483.692 54.54C484.719 55.6133 485.232 57.1533 485.232 59.16V62.45L484.462 59.58C485.582 57.3867 487.169 55.7067 489.222 54.54C491.322 53.3733 493.702 52.79 496.362 52.79C499.116 52.79 501.379 53.3267 503.152 54.4C504.926 55.4267 506.256 57.06 507.142 59.3C508.029 61.4933 508.472 64.27 508.472 67.63V82.33C508.472 84.3833 507.936 85.9467 506.862 87.02C505.789 88.0933 504.249 88.63 502.242 88.63C500.236 88.63 498.696 88.0933 497.622 87.02C496.549 85.9467 496.012 84.3833 496.012 82.33V68.12C496.012 66.02 495.639 64.5267 494.892 63.64C494.192 62.7533 493.142 62.31 491.742 62.31C489.876 62.31 488.382 62.9167 487.262 64.13C486.142 65.2967 485.582 66.8833 485.582 68.89V82.33C485.582 86.53 483.482 88.63 479.282 88.63ZM532.654 101.37C530.087 101.37 527.684 101.183 525.444 100.81C523.204 100.483 521.267 99.9933 519.634 99.34C518.28 98.8733 517.324 98.1967 516.764 97.31C516.204 96.4233 515.947 95.49 515.994 94.51C516.04 93.53 516.297 92.6433 516.764 91.85C517.277 91.0567 517.954 90.4733 518.794 90.1C519.634 89.7733 520.567 89.7967 521.594 90.17C523.647 91.01 525.514 91.5467 527.194 91.78C528.874 92.06 530.297 92.2 531.464 92.2C534.31 92.2 536.434 91.5933 537.834 90.38C539.28 89.2133 540.004 87.37 540.004 84.85V80.44H540.564C539.864 82.4 538.44 84.01 536.294 85.27C534.147 86.4833 531.814 87.09 529.294 87.09C526.214 87.09 523.53 86.39 521.244 84.99C518.957 83.5433 517.16 81.5367 515.854 78.97C514.594 76.4033 513.964 73.3933 513.964 69.94C513.964 67.3267 514.337 64.97 515.084 62.87C515.83 60.77 516.857 58.9733 518.164 57.48C519.517 55.9867 521.127 54.8433 522.994 54.05C524.907 53.21 527.007 52.79 529.294 52.79C531.907 52.79 534.24 53.3967 536.294 54.61C538.394 55.8233 539.794 57.41 540.494 59.37L539.794 62.24V59.16C539.794 57.1533 540.33 55.6133 541.404 54.54C542.524 53.4667 544.064 52.93 546.024 52.93C547.984 52.93 549.477 53.4667 550.504 54.54C551.577 55.6133 552.114 57.1533 552.114 59.16V83.38C552.114 89.3533 550.434 93.8333 547.074 96.82C543.714 99.8533 538.907 101.37 532.654 101.37ZM533.144 77.92C534.544 77.92 535.734 77.6167 536.714 77.01C537.694 76.3567 538.464 75.4467 539.024 74.28C539.584 73.0667 539.864 71.62 539.864 69.94C539.864 67.42 539.257 65.46 538.044 64.06C536.83 62.66 535.197 61.96 533.144 61.96C531.837 61.96 530.67 62.2867 529.644 62.94C528.617 63.5467 527.824 64.4567 527.264 65.67C526.75 66.8367 526.494 68.26 526.494 69.94C526.494 72.46 527.1 74.42 528.314 75.82C529.527 77.22 531.137 77.92 533.144 77.92ZM573.112 88.77C571.059 88.77 568.959 88.6067 566.812 88.28C564.712 88 562.799 87.4633 561.072 86.67C559.905 86.2033 559.065 85.5733 558.552 84.78C558.085 83.9867 557.852 83.1467 557.852 82.26C557.899 81.3733 558.155 80.58 558.622 79.88C559.135 79.1333 559.789 78.62 560.582 78.34C561.422 78.0133 562.355 78.0367 563.382 78.41C565.342 79.11 567.092 79.6233 568.632 79.95C570.219 80.23 571.735 80.37 573.182 80.37C574.909 80.37 576.145 80.1367 576.892 79.67C577.639 79.1567 578.012 78.5033 578.012 77.71C578.012 77.01 577.755 76.4733 577.242 76.1C576.775 75.7267 576.099 75.47 575.212 75.33L567.442 74.07C564.549 73.5567 562.309 72.5067 560.722 70.92C559.135 69.2867 558.342 67.1633 558.342 64.55C558.342 62.1233 559.019 60.0467 560.372 58.32C561.772 56.5467 563.662 55.1933 566.042 54.26C568.469 53.28 571.245 52.79 574.372 52.79C576.472 52.79 578.385 52.9533 580.112 53.28C581.839 53.56 583.519 54.0967 585.152 54.89C586.179 55.31 586.902 55.9167 587.322 56.71C587.742 57.5033 587.905 58.3433 587.812 59.23C587.719 60.07 587.415 60.8633 586.902 61.61C586.435 62.31 585.782 62.8 584.942 63.08C584.102 63.3133 583.122 63.2433 582.002 62.87C580.462 62.2633 579.085 61.82 577.872 61.54C576.705 61.26 575.609 61.12 574.582 61.12C572.669 61.12 571.315 61.3767 570.522 61.89C569.729 62.4033 569.332 63.0567 569.332 63.85C569.332 64.4567 569.542 64.97 569.962 65.39C570.382 65.7633 571.035 66.02 571.922 66.16L579.692 67.49C582.679 67.9567 584.965 68.9833 586.552 70.57C588.185 72.11 589.002 74.21 589.002 76.87C589.002 80.65 587.555 83.59 584.662 85.69C581.769 87.7433 577.919 88.77 573.112 88.77Z" fill="black" style="fill:black;fill:black;fill-opacity:1;"/>
<path d="M676.5 33.9227L667 20L637.5 65.2486L654 89.6133L663 76.1879L655.5 65.2486L676.5 33.9227Z" fill="#66CCFF" style="fill:#66CCFF;fill:color(display-p3 0.4000 0.8000 1.0000);fill-opacity:1;"/>
<path d="M688 20L682 28.9503L694.25 47.0994L706.5 65.2486L682 101.05L688 110L718 65.2486L688 20Z" fill="#66CCFF" style="fill:#66CCFF;fill:color(display-p3 0.4000 0.8000 1.0000);fill-opacity:1;"/>
<path d="M652 28.9503L646 20L616 65.2486L646 110L652 101.05L628 65.2486L652 28.9503Z" fill="#003366" style="fill:#003366;fill:color(display-p3 0.0000 0.2000 0.4000);fill-opacity:1;"/>
<path d="M680.5 39.8895L671.5 53.8122L679.5 64.2541L658 96.0773L667 110L697 65.2486L680.5 39.8895Z" fill="#003366" style="fill:#003366;fill:color(display-p3 0.0000 0.2000 0.4000);fill-opacity:1;"/>
</g>
<defs>
<clipPath id="clip0_3_33">
<rect width="748" height="130" fill="white" style="fill:white;fill:white;fill-opacity:1;"/>
</clipPath>
</defs>
</svg>
