<svg xmlns="http://www.w3.org/2000/svg" version="1.1" xmlns:xlink="http://www.w3.org/1999/xlink" xmlns:svgjs="http://svgjs.com/svgjs" width="102" height="90"><svg width="102" height="90" viewBox="0 0 102 90" fill="none" xmlns="http://www.w3.org/2000/svg">
<path d="M60.5 13.9227L51 1.51152e-05L21.5 45.2486L38 69.6133L47 56.1879L39.5 45.2486L60.5 13.9227Z" fill="#66CCFF" style="fill:#66CCFF;fill:color(display-p3 0.4000 0.8000 1.0000);fill-opacity:1;"></path>
<path d="M72 0L66 8.95027L78.25 27.0994L90.5 45.2486L66 81.0497L72 90L102 45.2486L72 0Z" fill="#66CCFF" style="fill:#66CCFF;fill:color(display-p3 0.4000 0.8000 1.0000);fill-opacity:1;"></path>
<path d="M36 8.95028L30 0L0 45.2486L30 90L36 81.0497L12 45.2486L36 8.95028Z" fill="#0081CD" style="fill:#0081CD;fill:color(display-p3 0.0000 0.5066 0.8042);fill-opacity:1;"></path>
<path d="M64.5 19.8895L55.5 33.8122L63.5 44.2541L42 76.0773L51 90L81 45.2486L64.5 19.8895Z" fill="#0081CD" style="fill:#0081CD;fill:color(display-p3 0.0000 0.5066 0.8042);fill-opacity:1;"></path>
</svg><style>@media (prefers-color-scheme: light) { :root { filter: none; } }
</style></svg>